<svg width="150" height="150" viewBox="0 0 150 150" fill="none" xmlns="http://www.w3.org/2000/svg">
<rect width="150" height="150" fill="#C4C4C4"/>
<path d="M46.4727 55H44.2227V37.9375H46.4727V55ZM52.2969 42.3203L52.3555 43.7266C53.2852 42.6328 54.5391 42.0859 56.1172 42.0859C57.8906 42.0859 59.0977 42.7656 59.7383 44.125C60.1602 43.5156 60.707 43.0234 61.3789 42.6484C62.0586 42.2734 62.8594 42.0859 63.7812 42.0859C66.5625 42.0859 67.9766 43.5586 68.0234 46.5039V55H65.8555V46.6328C65.8555 45.7266 65.6484 45.0508 65.2344 44.6055C64.8203 44.1523 64.125 43.9258 63.1484 43.9258C62.3438 43.9258 61.6758 44.168 61.1445 44.6523C60.6133 45.1289 60.3047 45.7734 60.2188 46.5859V55H58.0391V46.6914C58.0391 44.8477 57.1367 43.9258 55.332 43.9258C53.9102 43.9258 52.9375 44.5312 52.4141 45.7422V55H50.2461V42.3203H52.2969ZM79.1328 55C79.0078 54.75 78.9062 54.3047 78.8281 53.6641C77.8203 54.7109 76.6172 55.2344 75.2188 55.2344C73.9688 55.2344 72.9414 54.8828 72.1367 54.1797C71.3398 53.4688 70.9414 52.5703 70.9414 51.4844C70.9414 50.1641 71.4414 49.1406 72.4414 48.4141C73.4492 47.6797 74.8633 47.3125 76.6836 47.3125H78.793V46.3164C78.793 45.5586 78.5664 44.957 78.1133 44.5117C77.6602 44.0586 76.9922 43.832 76.1094 43.832C75.3359 43.832 74.6875 44.0273 74.1641 44.418C73.6406 44.8086 73.3789 45.2812 73.3789 45.8359H71.1992C71.1992 45.2031 71.4219 44.5938 71.8672 44.0078C72.3203 43.4141 72.9297 42.9453 73.6953 42.6016C74.4688 42.2578 75.3164 42.0859 76.2383 42.0859C77.6992 42.0859 78.8438 42.4531 79.6719 43.1875C80.5 43.9141 80.9297 44.918 80.9609 46.1992V52.0352C80.9609 53.1992 81.1094 54.125 81.4062 54.8125V55H79.1328ZM75.5352 53.3477C76.2148 53.3477 76.8594 53.1719 77.4688 52.8203C78.0781 52.4688 78.5195 52.0117 78.793 51.4492V48.8477H77.0938C74.4375 48.8477 73.1094 49.625 73.1094 51.1797C73.1094 51.8594 73.3359 52.3906 73.7891 52.7734C74.2422 53.1562 74.8242 53.3477 75.5352 53.3477ZM83.8438 48.5547C83.8438 46.5781 84.3008 45.0078 85.2148 43.8438C86.1289 42.6719 87.3398 42.0859 88.8477 42.0859C90.3945 42.0859 91.6016 42.6328 92.4688 43.7266L92.5742 42.3203H94.5547V54.6953C94.5547 56.3359 94.0664 57.6289 93.0898 58.5742C92.1211 59.5195 90.8164 59.9922 89.1758 59.9922C88.2617 59.9922 87.3672 59.7969 86.4922 59.4062C85.6172 59.0156 84.9492 58.4805 84.4883 57.8008L85.6133 56.5C86.543 57.6484 87.6797 58.2227 89.0234 58.2227C90.0781 58.2227 90.8984 57.9258 91.4844 57.332C92.0781 56.7383 92.375 55.9023 92.375 54.8242V53.7344C91.5078 54.7344 90.3242 55.2344 88.8242 55.2344C87.3398 55.2344 86.1367 54.6367 85.2148 53.4414C84.3008 52.2461 83.8438 50.6172 83.8438 48.5547ZM86.0234 48.8008C86.0234 50.2305 86.3164 51.3555 86.9023 52.1758C87.4883 52.9883 88.3086 53.3945 89.3633 53.3945C90.7305 53.3945 91.7344 52.7734 92.375 51.5312V45.7422C91.7109 44.5312 90.7148 43.9258 89.3867 43.9258C88.332 43.9258 87.5078 44.3359 86.9141 45.1562C86.3203 45.9766 86.0234 47.1914 86.0234 48.8008ZM103.098 55.2344C101.379 55.2344 99.9805 54.6719 98.9023 53.5469C97.8242 52.4141 97.2852 50.9023 97.2852 49.0117V48.6133C97.2852 47.3555 97.5234 46.2344 98 45.25C98.4844 44.2578 99.1562 43.4844 100.016 42.9297C100.883 42.3672 101.82 42.0859 102.828 42.0859C104.477 42.0859 105.758 42.6289 106.672 43.7148C107.586 44.8008 108.043 46.3555 108.043 48.3789V49.2812H99.4531C99.4844 50.5312 99.8477 51.543 100.543 52.3164C101.246 53.082 102.137 53.4648 103.215 53.4648C103.98 53.4648 104.629 53.3086 105.16 52.9961C105.691 52.6836 106.156 52.2695 106.555 51.7539L107.879 52.7852C106.816 54.418 105.223 55.2344 103.098 55.2344ZM102.828 43.8672C101.953 43.8672 101.219 44.1875 100.625 44.8281C100.031 45.4609 99.6641 46.3516 99.5234 47.5H105.875V47.3359C105.812 46.2344 105.516 45.3828 104.984 44.7812C104.453 44.1719 103.734 43.8672 102.828 43.8672ZM71.2695 83H69.0078L60.418 69.8516V83H58.1562V65.9375H60.418L69.0312 79.1445V65.9375H71.2695V83ZM74.3516 76.543C74.3516 75.3008 74.5938 74.1836 75.0781 73.1914C75.5703 72.1992 76.25 71.4336 77.1172 70.8945C77.9922 70.3555 78.9883 70.0859 80.1055 70.0859C81.832 70.0859 83.2266 70.6836 84.2891 71.8789C85.3594 73.0742 85.8945 74.6641 85.8945 76.6484V76.8008C85.8945 78.0352 85.6562 79.1445 85.1797 80.1289C84.7109 81.1055 84.0352 81.8672 83.1523 82.4141C82.2773 82.9609 81.2695 83.2344 80.1289 83.2344C78.4102 83.2344 77.0156 82.6367 75.9453 81.4414C74.8828 80.2461 74.3516 78.6641 74.3516 76.6953V76.543ZM76.5312 76.8008C76.5312 78.207 76.8555 79.3359 77.5039 80.1875C78.1602 81.0391 79.0352 81.4648 80.1289 81.4648C81.2305 81.4648 82.1055 81.0352 82.7539 80.1758C83.4023 79.3086 83.7266 78.0977 83.7266 76.543C83.7266 75.1523 83.3945 74.0273 82.7305 73.168C82.0742 72.3008 81.1992 71.8672 80.1055 71.8672C79.0352 71.8672 78.1719 72.293 77.5156 73.1445C76.8594 73.9961 76.5312 75.2148 76.5312 76.8008ZM91.5547 67.25V70.3203H93.9219V71.9961H91.5547V79.8594C91.5547 80.3672 91.6602 80.75 91.8711 81.0078C92.082 81.2578 92.4414 81.3828 92.9492 81.3828C93.1992 81.3828 93.543 81.3359 93.9805 81.2422V83C93.4102 83.1562 92.8555 83.2344 92.3164 83.2344C91.3477 83.2344 90.6172 82.9414 90.125 82.3555C89.6328 81.7695 89.3867 80.9375 89.3867 79.8594V71.9961H87.0781V70.3203H89.3867V67.25H91.5547ZM53.5273 103.465H46.3672V111H44.1172V93.9375H54.6875V95.7891H46.3672V101.625H53.5273V103.465ZM56.2109 104.543C56.2109 103.301 56.4531 102.184 56.9375 101.191C57.4297 100.199 58.1094 99.4336 58.9766 98.8945C59.8516 98.3555 60.8477 98.0859 61.9648 98.0859C63.6914 98.0859 65.0859 98.6836 66.1484 99.8789C67.2188 101.074 67.7539 102.664 67.7539 104.648V104.801C67.7539 106.035 67.5156 107.145 67.0391 108.129C66.5703 109.105 65.8945 109.867 65.0117 110.414C64.1367 110.961 63.1289 111.234 61.9883 111.234C60.2695 111.234 58.875 110.637 57.8047 109.441C56.7422 108.246 56.2109 106.664 56.2109 104.695V104.543ZM58.3906 104.801C58.3906 106.207 58.7148 107.336 59.3633 108.188C60.0195 109.039 60.8945 109.465 61.9883 109.465C63.0898 109.465 63.9648 109.035 64.6133 108.176C65.2617 107.309 65.5859 106.098 65.5859 104.543C65.5859 103.152 65.2539 102.027 64.5898 101.168C63.9336 100.301 63.0586 99.8672 61.9648 99.8672C60.8945 99.8672 60.0312 100.293 59.375 101.145C58.7188 101.996 58.3906 103.215 58.3906 104.801ZM78.3008 109.746C77.457 110.738 76.2188 111.234 74.5859 111.234C73.2344 111.234 72.2031 110.844 71.4922 110.062C70.7891 109.273 70.4336 108.109 70.4258 106.57V98.3203H72.5938V106.512C72.5938 108.434 73.375 109.395 74.9375 109.395C76.5938 109.395 77.6953 108.777 78.2422 107.543V98.3203H80.4102V111H78.3477L78.3008 109.746ZM85.7656 98.3203L85.8359 99.9141C86.8047 98.6953 88.0703 98.0859 89.6328 98.0859C92.3125 98.0859 93.6641 99.5977 93.6875 102.621V111H91.5195V102.609C91.5117 101.695 91.3008 101.02 90.8867 100.582C90.4805 100.145 89.8438 99.9258 88.9766 99.9258C88.2734 99.9258 87.6562 100.113 87.125 100.488C86.5938 100.863 86.1797 101.355 85.8828 101.965V111H83.7148V98.3203H85.7656ZM96.4297 104.555C96.4297 102.609 96.8906 101.047 97.8125 99.8672C98.7344 98.6797 99.9414 98.0859 101.434 98.0859C102.918 98.0859 104.094 98.5938 104.961 99.6094V93H107.129V111H105.137L105.031 109.641C104.164 110.703 102.957 111.234 101.41 111.234C99.9414 111.234 98.7422 110.633 97.8125 109.43C96.8906 108.227 96.4297 106.656 96.4297 104.719V104.555ZM98.5977 104.801C98.5977 106.238 98.8945 107.363 99.4883 108.176C100.082 108.988 100.902 109.395 101.949 109.395C103.324 109.395 104.328 108.777 104.961 107.543V101.719C104.312 100.523 103.316 99.9258 101.973 99.9258C100.91 99.9258 100.082 100.336 99.4883 101.156C98.8945 101.977 98.5977 103.191 98.5977 104.801Z" fill="black"/>
</svg>
